<?xml version="1.0" ?><svg xmlns="http://www.w3.org/2000/svg" width="640" height="640" version="1.1" viewBox="0 0 640 640">
 <path d="m198.78 92.812c-62.741 0-113.6 50.851-113.6 113.6 0 62.741 50.851 113.6 113.6 113.6 62.741 0 113.6-50.851 113.6-113.6 0-62.741-50.851-113.6-113.6-113.6zm314.97 0.0087c-20.996 0.6389-29.566 37.962-2.6624 45.348 68.974 48.447 101.7 141.31 78.582 222.33-13.163 50.265-46.784 93.749-90.072 121.95-23.481 26.922 22.769 51.474 39.909 24.065 77.86-56.77 116.34-160.95 94.384-254.73-13.73-63.15-53.198-119.91-107.35-155.11-4.5941-2.821-8.907-3.961-12.795-3.8427zm-47.884 71.491c-25.601 0.60024-24.761 42.188 2.3815 48.549 48.553 38.363 58.198 115.12 20.779 164.36-9.8504 22.511-49.097 28.462-41.836 57.057 19.332 33.571 54.543-5.8493 70.1-23.781 24.108-29.056 37.473-66.627 37.341-104.37 0.48791-56.509-30.676-112.63-79.973-140.6-3.2145-0.89951-6.1449-1.2771-8.7932-1.2151zm-47.623 70.769c-22.568-0.44096-29.48 38.82-2.2412 45.843 26.131 24.1-0.4935 51.705-17.91 68.834-6.1286 37.173 43.911 30.016 54.6 4.3957 30.08-36.077 17.736-94.758-23.871-116.25-3.8091-1.8933-7.3525-2.7675-10.576-2.8305zm-298.97 113.32c-65.848 0-119.27 53.425-119.27 119.27v36.918c0 23.517 19.08 42.596 42.596 42.596h312.38c23.517 0 42.596-19.08 42.596-42.596v-36.918c0-65.848-53.425-119.27-119.27-119.27h-14.82c-19.702 9.0522-41.621 14.199-64.695 14.199-23.074 0-44.905-5.1471-64.695-14.199z" fill="#FFD60A" stroke="#FFD60A" stroke-width="12.8"/>
</svg>
