<?xml version="1.0" ?><svg xmlns="http://www.w3.org/2000/svg" width="640" height="640" version="1.1" viewBox="0 0 169.33 169.33">
 <path d="m52.595 24.558c-16.6 0-30.055 13.454-30.055 30.055 0 16.6 13.454 30.055 30.055 30.055 16.6 0 30.055-13.454 30.055-30.055 0-16.6-13.454-30.055-30.055-30.055zm83.333 0.0023c-5.5552 0.16904-7.8226 10.044-0.70441 11.998 18.249 12.818 26.908 37.387 20.791 58.823-3.4826 13.299-12.378 24.804-23.831 32.265-6.2125 7.1231 6.0243 13.619 10.559 6.3671 20.6-15.02 30.781-42.583 24.972-67.396-3.6327-16.708-14.075-31.726-28.402-41.04-1.2155-0.74637-2.3566-1.048-3.3853-1.0167zm-12.669 18.915c-6.7735 0.15881-6.5512 11.162 0.6301 12.845 12.846 10.15 15.398 30.457 5.4977 43.485-2.6062 5.9558-12.99 7.5303-11.069 15.096 5.1148 8.8822 14.431-1.5476 18.547-6.2919 6.3784-7.6875 9.9146-17.628 9.8795-27.613 0.12909-14.951-8.1163-29.799-21.159-37.2-0.85048-0.23799-1.6258-0.3379-2.3265-0.32148zm-12.6 18.724c-5.9711-0.11667-7.7997 10.271-0.59297 12.129 6.9136 6.3764-0.13057 13.68-4.7387 18.212-1.6215 9.8351 11.618 7.9417 14.446 1.163 7.9584-9.5451 4.6925-25.071-6.3158-30.756-1.0078-0.50092-1.9453-0.73222-2.7983-0.74889zm-79.102 29.982c-17.422 0-31.557 14.135-31.557 31.557v9.7676c0 6.2222 5.0482 11.27 11.27 11.27h82.65c6.2222 0 11.27-5.0482 11.27-11.27v-9.7676c0-17.422-14.135-31.557-31.557-31.557h-3.921c-5.2126 2.395-11.012 3.7568-17.117 3.7568-6.1048 0-11.881-1.3618-17.117-3.7568z" stroke-width=".2348" fill="#F9D213"/>
</svg>