<?xml version="1.0" ?><svg xmlns="http://www.w3.org/2000/svg" width="448" height="512" version="1.1" viewBox="0 0 118.53 135.47">
 <g transform="translate(134.6 105.2)">
  <path transform="matrix(.26458 0 0 .26458 -134.6 -105.2)" d="m96 0c-53 0-96 43-96 96v320c0 53 43 96 96 96h328c13.3 0 24-10.7 24-24v-16c0-7.5-3.5004-14.299-8.9004-18.699-4.2-15.4-4.2-59.301 0-74.701 5.4-4.3 8.9004-11.1 8.9004-18.6v-336c0-13.3-10.7-24-24-24zm33.67 38.301h188.07a33.67 32.914 0 0 1 23.807 9.6406l58.84 57.518a33.67 32.914 0 0 1 9.8613 23.273v183.85c0 18.178-15.074 32.914-33.67 32.914h-246.91c-18.595 0-33.67-14.736-33.67-32.914v-241.37c0-18.178 15.074-32.914 33.67-32.914zm19.641 43.885c-4.6485 0-8.418 3.6843-8.418 8.2285v71.314c0 4.5442 3.7695 8.2285 8.418 8.2285h162.74c4.6485 0 8.418-3.6843 8.418-8.2285v-68.928a8.4146 8.2258 0 0 0-2.4668-5.8184l-2.4395-2.3867c-1.5783-1.5435-3.7204-2.4102-5.9531-2.4102zm103.81 131.66c-24.793 0-44.893 19.648-44.893 43.885 0 24.237 20.099 43.887 44.893 43.887 24.793 0 44.893-19.649 44.893-43.887 0-24.237-20.099-43.885-44.893-43.885zm-157.12 170.16h285.4c-1.9 17.1-1.9 46.9 0 64h-285.4c-17.7 0-32-14.3-32-32 0-17.6 14.4-32 32-32z" fill="#001D3D" stroke="#001D3D" stroke-width="2.3706"/>
 </g>
</svg>
