<?xml version="1.0" ?><svg xmlns="http://www.w3.org/2000/svg" width="802.42" height="512" version="1.1" viewBox="0 0 212.31 135.47">
 <g transform="translate(-53.614 .28692)">
  <path transform="matrix(.26458 0 0 .26458 53.614 -.28692)" d="m127.12 0c-17.58 0-34.148 3.381-49.699 10.143-15.326 6.5362-28.736 15.552-40.23 27.047-11.495 11.495-20.623 25.017-27.385 40.568-6.5362 15.326-9.8047 31.781-9.8047 49.361 0 17.58 3.2685 34.146 9.8047 49.697 6.7616 15.326 15.89 28.736 27.385 40.23 11.495 11.495 24.904 20.623 40.23 27.385 15.552 6.5362 32.119 9.8047 49.699 9.8047s34.033-3.2685 49.359-9.8047c15.552-6.7616 29.074-15.89 40.568-27.385 11.495-11.495 20.511-24.904 27.047-40.23 6.7616-15.552 10.143-32.117 10.143-49.697 0-17.58-3.381-34.035-10.143-49.361-6.5362-15.552-15.552-29.074-27.047-40.568-11.495-11.495-25.017-20.511-40.568-27.047-15.326-6.7616-31.779-10.143-49.359-10.143zm264.38 0c-17.58 0-34.146 3.381-49.697 10.143-15.326 6.5362-28.736 15.552-40.23 27.047-11.495 11.495-20.623 25.017-27.385 40.568-6.5362 15.326-9.8047 31.781-9.8047 49.361 0 17.58 3.2684 34.146 9.8047 49.697 6.7616 15.326 15.89 28.736 27.385 40.23s24.904 20.623 40.23 27.385c15.552 6.5362 32.117 9.8047 49.697 9.8047 17.58 0 34.035-3.2685 49.361-9.8047 15.552-6.7616 29.074-15.89 40.568-27.385s20.511-24.904 27.047-40.23c6.7616-15.552 10.143-32.117 10.143-49.697 0-17.58-3.381-34.035-10.143-49.361-6.5362-15.552-15.552-29.074-27.047-40.568-11.495-11.495-25.017-20.511-40.568-27.047-15.326-6.7616-31.781-10.143-49.361-10.143zm120.7 4.7324 65.588 242.74h86.549l65.588-242.74h-77.76l-31.104 121.37-31.104-121.37zm-384.06 68.631c7.4378 0 14.425 1.4645 20.961 4.3945 6.5362 2.7046 12.171 6.4251 16.904 11.158 4.7331 4.7331 8.4516 10.366 11.156 16.902 2.93 6.5362 4.3945 13.523 4.3945 20.961 0 7.4378-1.4645 14.425-4.3945 20.961-2.7046 6.5362-6.4231 12.284-11.156 17.242-4.7331 4.7331-10.368 8.5661-16.904 11.496-6.5362 2.7046-13.523 4.0566-20.961 4.0566-7.4378 0-14.425-1.352-20.961-4.0566-6.5362-2.93-12.284-6.763-17.242-11.496-4.7331-4.9585-8.5641-10.706-11.494-17.242-2.7046-6.5362-4.0586-13.523-4.0586-20.961 0-7.4378 1.354-14.425 4.0586-20.961 2.93-6.5362 6.761-12.169 11.494-16.902 4.9585-4.7331 10.706-8.4536 17.242-11.158 6.5362-2.93 13.523-4.3945 20.961-4.3945zm264.38 0c7.4378 0 14.425 1.4645 20.961 4.3945 6.5362 2.7046 12.171 6.4251 16.904 11.158 4.7331 4.7331 8.4516 10.366 11.156 16.902 2.93 6.5362 4.3945 13.523 4.3945 20.961 0 7.4378-1.4645 14.425-4.3945 20.961-2.7046 6.5362-6.4231 12.284-11.156 17.242-4.7331 4.7331-10.368 8.5661-16.904 11.496-6.5362 2.7046-13.523 4.0566-20.961 4.0566-7.4378 0-14.425-1.352-20.961-4.0566-6.5362-2.93-12.284-6.763-17.242-11.496-4.7331-4.9585-8.5661-10.706-11.496-17.242-2.7047-6.5362-4.0566-13.523-4.0566-20.961 0-7.4378 1.352-14.425 4.0566-20.961 2.93-6.5362 6.763-12.169 11.496-16.902 4.9585-4.7331 10.706-8.4536 17.242-11.158 6.5362-2.93 13.523-4.3945 20.961-4.3945zm348.74 153.1c-4.0934 0-8.1868 1.5717-11.295 4.7168l-151.5 151.5-55.41-55.5c-6.2164-6.2902-16.374-6.2902-22.59 0l-45.299 45.301c-6.2235 6.2441-6.2235 16.346 0 22.59l112 112.21c6.2198 6.2914 16.38 6.2914 22.6 0l208-208.21c6.2183-6.2493 6.2092-16.351-0.0195-22.59h0.0195l-45.211-45.301c-3.1082-3.1451-7.2015-4.7168-11.295-4.7168z" fill="#001D3D" stroke="#001D3D" stroke-width="4.2462"/>
 </g>
</svg>
