<?xml version="1.0" ?><svg xmlns="http://www.w3.org/2000/svg" width="118.53mm" height="135.47mm" version="1.1" viewBox="0 0 118.53 135.47">
 <g transform="translate(-291.77 -236.37)">
  <path transform="matrix(.26458 0 0 .26458 291.77 236.37)" d="m96 0c-53 0-96 43-96 96v320c0 53 43 96 96 96h328c13.3 0 24-10.7 24-24v-16c0-7.5-3.5004-14.299-8.9004-18.699-4.2-15.4-4.2-59.301 0-74.701 5.4-4.3 8.9004-11.1 8.9004-18.6v-336c0-13.3-10.7-24-24-24zm7.4766 38.4h29.91c4.1293 0 7.4766 3.2751 7.4766 7.3145v47.611c28.521-30.984 69.949-50.372 116.01-50.045 85.306 0.60586 153.56 68.037 153.38 151.49-0.18142 83.333-69.297 150.83-154.53 150.83-39.934 0-76.327-14.819-103.75-39.141-3.1772-2.8172-3.3236-7.6513-0.29102-10.617l21.164-20.703c2.7878-2.727 7.2678-2.8753 10.221-0.32031 19.339 16.739 44.773 26.896 72.658 26.896 60.608 0 109.67-47.98 109.67-107.28 0-59.287-49.048-107.28-109.67-107.28-36.449 0-68.715 17.356-88.65 44.088h61.234c4.1293 0 7.4766 3.2751 7.4766 7.3144v29.258c0 4.0393-3.3472 7.3144-7.4766 7.3144h-124.83c-4.1292 0-7.4766-3.2752-7.4766-7.3144v-122.11c0-4.0393 3.3473-7.3145 7.4766-7.3145zm-7.4766 345.6h285.4c-1.9 17.1-1.9 46.9 0 64h-285.4c-17.7 0-32-14.3-32-32 0-17.6 14.4-32 32-32z" fill="#001D3D" stroke="#001D3D" stroke-width="2.3706"/>
 </g>
</svg>
