<?xml version="1.0" ?><svg xmlns="http://www.w3.org/2000/svg" width="448" height="448" version="1.1" viewBox="0 0 118.53 118.53">
 <path transform="scale(.26458)" d="m154.96 71.469c-29.228 0-54.666 6.2251-76.316 18.674-21.515 12.449-38.024 30.174-49.525 53.178-11.366 23.003-17.049 49.794-17.049 80.375 1e-6 48.848 11.84 86.533 35.52 113.05 23.815 26.521 57.575 39.781 101.28 39.781 30.175 0 55.546-3.8556 76.113-11.568v-30.244c-26.521 7.4422-50.133 11.164-70.836 11.164-33.693 0-59.672-10.553-77.939-31.662-18.132-21.244-27.199-51.285-27.199-90.119 0-37.752 9.4044-67.453 28.213-89.104 18.944-21.785 44.722-32.678 77.332-32.678 22.462 0 44.925 5.2778 67.387 15.832l14.613-29.635c-23.274-11.366-50.472-17.049-81.594-17.049zm220.83 74.486c-33.152 0-58.726 10.148-76.723 30.445-17.861 20.297-26.791 49.051-26.791 86.262 0 36.264 8.7941 64.341 26.385 84.232 17.726 19.756 42.692 29.635 74.896 29.635v0.00195c22.597 0 41.338-3.8557 56.223-11.568v-29.838c-19.485 7.9835-38.497 11.977-57.035 11.977-21.65 0-38.022-7.3079-49.117-21.922-10.96-14.614-16.441-35.587-16.441-62.92 0-57.643 22.597-86.465 67.791-86.465 6.7657 0 14.546 1.0137 23.342 3.043 8.7953 1.8942 16.915 4.3317 24.357 7.3086l10.352-28.619c-6.0891-3.1107-14.48-5.8175-25.17-8.1191-10.69-2.3016-21.379-3.4531-32.068-3.4531z" fill="#D43610" stroke="#D43610" stroke-width="24.141"/>
</svg>