<?xml version="1.0" ?><svg xmlns="http://www.w3.org/2000/svg" width="448" height="448" version="1.1" viewBox="0 0 448 448">
 <path d="m156.29 71.469c-29.228 0-54.667 6.2252-76.317 18.674-21.515 12.449-38.025 30.174-49.526 53.179-11.366 23.003-17.049 49.795-17.049 80.376 1e-6 48.849 11.84 86.534 35.521 113.05 23.815 26.521 57.576 39.782 101.28 39.782 30.175 0 55.547-3.8557 76.114-11.568v-30.244c-26.521 7.4423-50.134 11.164-70.837 11.164-33.694 0-59.673-10.553-77.94-31.662-18.132-21.244-27.199-51.286-27.199-90.12 0-37.753 9.4045-67.454 28.213-89.105 18.944-21.785 44.723-32.679 77.333-32.679 22.462 0 44.926 5.2779 67.388 15.832l14.613-29.635c-23.274-11.366-50.473-17.049-81.595-17.049zm220.83 74.487c-33.153 0-58.727 10.148-76.724 30.445-17.861 20.297-26.791 49.052-26.791 86.263 0 36.265 8.7942 64.342 26.385 84.233 17.726 19.756 42.693 29.635 74.897 29.635v2e-3c22.597 0 41.339-3.8558 56.224-11.568v-29.838c-19.485 7.9836-38.498 11.977-57.036 11.977-21.65 0-38.023-7.308-49.118-21.922-10.96-14.614-16.441-35.588-16.441-62.921 0-57.644 22.597-86.466 67.792-86.466 6.7658 0 14.546 1.0137 23.342 3.043 8.7954 1.8942 16.915 4.3318 24.357 7.3087l10.352-28.619c-6.0892-3.1108-14.48-5.8176-25.17-8.1192-10.69-2.3016-21.379-3.4532-32.068-3.4532z" fill="#0E63B3" stroke="#0E63B3" stroke-width="8.96"/>
</svg>
