<?xml version="1.0" encoding="UTF-8"?>
<svg width="2972.3" height="523.57" version="1.1" viewBox="0 0 786.43 138.53" xmlns="http://www.w3.org/2000/svg">
 <g transform="translate(54.012 -28.32)" fill="#f2bc0c" stroke="#000c17">
  <g transform="matrix(8.2111 0 0 8.2111 -311.05 -696.06)" stroke-width=".16111" aria-label="Anchor">
   <path d="m60.462 88.415 5.0574 16.369h-4.7413l-0.51929-1.9417h-4.9445l-0.49671 1.9417h-4.7413l5.0574-16.369zm-1.7385 9.8439-0.92569-3.7705-0.94827 3.7705z"/>
   <path d="m75.973 91.824v12.96h-3.7479l-2.2126-3.8834v3.8834h-3.7479v-12.96h3.7253l1.9191 4.1092v-4.1092z"/>
   <path d="m89.497 101.96q-0.24836 0.33866-0.58702 0.72249-0.33867 0.36124-0.51929 0.51928-1.016 0.81281-2.2578 1.2644-1.2192 0.42898-2.5061 0.42898-1.4224 0-2.8222-0.56445-1.3772-0.58702-2.4384-1.6256-0.90311-0.94826-1.3772-2.0772-0.45156-1.1515-0.45156-2.3481 0-1.3547 0.58702-2.619 0.58702-1.2869 1.7385-2.2578 1.0386-0.83538 2.2352-1.2644 1.2192-0.45156 2.4836-0.45156 1.4676 0 2.89 0.6096 1.445 0.6096 2.5964 1.8062l-3.206 2.6642q-0.51929-0.51929-1.1063-0.76764-0.58702-0.27093-1.174-0.27093-0.99342 0-1.8514 0.67733-0.42898 0.36124-0.65476 0.85796t-0.22578 1.016q0 0.45156 0.15804 0.90311 0.18062 0.45156 0.56444 0.83537 0.42898 0.45156 0.94827 0.67734 0.54187 0.2032 1.1063 0.2032 0.49671 0 0.97084-0.15805 0.47413-0.15804 0.88054-0.51929 0.11289-0.0677 0.27093-0.27093 0.18062-0.2032 0.24836-0.31609z"/>
   <path d="m100.29 91.824v12.96h-4.2446v-4.4704h-1.7611v4.4704h-4.2446v-12.96h4.2446v4.4478h1.7611v-4.4478z"/>
   <path d="m107.88 91.598q1.445 0 2.7319 0.54187 1.2869 0.51929 2.2352 1.4224t1.4901 2.1449q0.56445 1.2192 0.56445 2.5964 0 1.3998-0.56445 2.619-0.54186 1.2192-1.4901 2.1449-0.94827 0.90311-2.2352 1.4224-1.2869 0.51929-2.7319 0.51929-1.4676 0-2.7545-0.51929-1.2644-0.51929-2.2126-1.4224-0.94827-0.92569-1.5127-2.1449-0.54186-1.2192-0.54186-2.619 0-1.3772 0.54186-2.5964 0.56445-1.2418 1.5127-2.1449 0.94826-0.90311 2.2126-1.4224 1.2869-0.54187 2.7545-0.54187zm2.6868 6.683q0-0.51929-0.2032-0.97084-0.2032-0.47413-0.56444-0.8128-0.36125-0.33867-0.85796-0.54187-0.47413-0.2032-1.016-0.2032t-1.0386 0.2032q-0.47413 0.2032-0.83538 0.54187-0.33867 0.33867-0.56444 0.8128-0.2032 0.45156-0.2032 0.97084t0.2032 0.99342q0.22577 0.45156 0.56444 0.79022 0.36125 0.33867 0.83538 0.54187 0.49671 0.2032 1.0386 0.2032t1.016-0.2032q0.49671-0.2032 0.85796-0.54187 0.36124-0.33867 0.56444-0.79022 0.2032-0.47413 0.2032-0.99342z"/>
   <path d="m126.93 104.78h-4.5607q-0.99342-1.4224-1.5353-2.0997-0.54186-0.69992-0.79022-0.92569-0.24836-0.24836-0.29351-0.15805-0.0452 0.0677-0.0452 0.15805v3.0254h-4.2446v-12.96h5.1929q0.92569 0 1.8062 0.4064 0.88053 0.4064 1.5127 1.0612 0.72249 0.69991 1.0837 1.603 0.38383 0.88053 0.38383 1.8062 0 0.94827-0.38383 1.874-0.36124 0.92569-1.0837 1.6708zm-5.5993-8.128q0-0.4064-0.29352-0.69991-0.29351-0.29351-0.72249-0.29351h-0.65475v1.9868h0.65475q0.42898 0 0.72249-0.29351 0.29352-0.29351 0.29352-0.69991z"/>
  </g>
  <path d="m-50.169 122.66h8.5848c5.7791 27.341 36.195 42.581 64.301 42.581 28.152 0 58.529-15.271 64.301-42.581h8.5848c2.8333 0 4.2521-3.44 2.2486-5.4518l-17.764-17.839c-1.2418-1.2471-3.2554-1.2471-4.4975 0l-17.764 17.839c-2.0035 2.012-0.58462 5.4518 2.2486 5.4518h9.3141c-5.3771 14.456-22.516 23.044-38.193 25.021v-50.569h13.781c1.7562 0 3.1802-1.4299 3.1802-3.1936v-10.645c0-1.7637-1.4239-3.1936-3.1802-3.1936h-13.781v-1.4558c9.88-3.5071 16.96-12.967 16.961-24.09 0.001591-13.903-11.235-25.356-25.078-25.549-14.217-0.19934-25.804 11.315-25.804 25.546 0 11.124 7.0801 20.585 16.961 24.093v1.4558h-13.781c-1.7562 0-3.1802 1.4299-3.1802 3.1936v10.645c0 1.7637 1.4239 3.1936 3.1802 3.1936h13.781v50.569c-15.619-1.9691-32.814-10.56-38.193-25.021h9.3141c2.8333 0 4.2521-3.44 2.2486-5.4518l-17.764-17.839c-1.2419-1.2471-3.2554-1.2471-4.4975 0l-17.764 17.839c-2.0032 2.0117-0.58435 5.4518 2.2489 5.4518zm72.886-76.647c4.6762 0 8.4804 3.8204 8.4804 8.5163 0 4.6959-3.8043 8.5163-8.4804 8.5163-4.6762 0-8.4804-3.8203-8.4804-8.5163 0-4.6959 3.8043-8.5163 8.4804-8.5163z" stroke-width="1.323"/>
 </g>
</svg>
