<?xml version="1.0" encoding="UTF-8"?>
<svg class="svg-inline--fa fa-anchor fa-w-18" width="580" height="520" aria-hidden="true" data-icon="anchor" data-prefix="fas" focusable="false" role="img" version="1.1" viewBox="0 0 580 520" xmlns="http://www.w3.org/2000/svg">
 <path d="m14.535 356.56h32.445c21.842 103.33 136.8 160.93 243.02 160.93 106.4 0 221.2-57.714 243.02-160.93h32.445c10.708 0 16.07-13.001 8.4985-20.604l-67.135-67.419c-4.6934-4.7133-12.303-4.7133-16.998 0l-67.135 67.419c-7.572 7.604-2.2095 20.604 8.4984 20.604h35.202c-20.322 54.633-85.098 87.092-144.35 94.563v-191.12h52.082c6.6375 0 12.019-5.4043 12.019-12.07v-40.233c0-6.6656-5.3815-12.07-12.019-12.07h-52.082v-5.5019c37.34-13.255 64.096-49.009 64.101-91.045 6e-3 -52.544-42.461-95.829-94.779-96.561-53.732-0.75336-97.524 42.763-97.524 96.549 0 42.041 26.758 77.8 64.101 91.057v5.5019h-52.082c-6.6375 0-12.019 5.4043-12.019 12.07v40.233c0 6.6656 5.3815 12.07 12.019 12.07h52.082v191.12c-59.029-7.4421-124.02-39.91-144.35-94.563h35.202c10.708 0 16.07-13.001 8.4984-20.604l-67.135-67.419c-4.6934-4.7133-12.303-4.7133-16.998 0l-67.135 67.419c-7.571 7.603-2.2085 20.604 8.4995 20.604zm275.47-289.68c17.673 0 32.051 14.439 32.051 32.186 0 17.748-14.378 32.186-32.051 32.186-17.673 0-32.051-14.439-32.051-32.186 0-17.748 14.378-32.186 32.051-32.186z" fill="#053561" stroke="#000c17" stroke-width="5.0185"/>
</svg>
