<?xml version="1.0" encoding="UTF-8"?>
<svg class="svg-inline--fa fa-anchor fa-w-18" width="504" height="451.86" aria-hidden="true" data-icon="anchor" data-prefix="fas" focusable="false" role="img" version="1.1" viewBox="0 0 504 451.86" xmlns="http://www.w3.org/2000/svg">
 <path d="m12.63 309.84h28.194c18.98 89.793 118.87 139.84 211.18 139.84 92.456 0 192.22-50.152 211.18-139.84h28.194c9.3048 0 13.965-11.298 7.3849-17.904l-58.338-58.585c-4.0784-4.0957-10.691-4.0957-14.771 0l-58.338 58.585c-6.5798 6.6076-1.92 17.904 7.3849 17.904h30.589c-17.659 47.474-73.947 75.68-125.43 82.172v-166.08h45.258c5.7678 0 10.444-4.6962 10.444-10.488v-34.961c0-5.7922-4.6764-10.488-10.444-10.488h-45.258v-4.7809c32.447-11.518 55.698-42.587 55.702-79.115 0.00521-45.659-36.897-83.272-82.36-83.908-46.691-0.65465-84.745 37.159-84.745 83.898 0 36.533 23.252 67.606 55.702 79.126v4.7809h-45.258c-5.7678 0-10.444 4.6961-10.444 10.488v34.961c0 5.7922 4.6763 10.488 10.444 10.488h45.258v166.08c-51.295-6.4669-107.77-34.68-125.43-82.172h30.589c9.3048 0 13.965-11.298 7.3849-17.904l-58.338-58.585c-4.0784-4.0957-10.691-4.0957-14.771 0l-58.338 58.585c-6.5789 6.6068-1.9191 17.904 7.3857 17.904zm239.37-251.72c15.357 0 27.851 12.547 27.851 27.969 0 15.422-12.494 27.969-27.851 27.969-15.357 0-27.851-12.547-27.851-27.969 0-15.422 12.494-27.969 27.851-27.969z" fill="#f2bc0c" stroke="#000c17" stroke-width="4.3609"/>
</svg>
