<?xml version="1.0" encoding="UTF-8"?>
<svg class="svglite" width="720" height="720" version="1.1" viewBox="0 0 540 540" xmlns="http://www.w3.org/2000/svg">
 <rect x="1.9965" y="1.9965" width="536.01" height="536.01" fill="#053561" stroke="#003566" stroke-width="3.9929"/>
 <polygon transform="scale(3.125)" points="23.39 0 23.82 0 24.25 0 24.69 0 25.12 0 25.55 0 25.98 0 26.42 0 26.85 0 27.28 0 27.72 0 28.15 0 28.58 0 29.02 0 29.45 0 29.88 0 30.32 0 30.75 0 31.18 0 31.62 0 32.05 0 32.48 0 32.91 0 33.35 0 33.78 0 34.21 0 34.65 0 35.08 0 35.51 0 35.95 0 36.38 0 36.81 0 37.25 0 37.68 0 38.11 0 38.54 0 38.98 0 39.41 0 39.84 0 40.28 0 40.71 0 41.14 0 41.58 0 42.01 0 42.44 0 42.88 0 43.31 0 43.74 0 44.17 0 44.61 0 45.04 0 45.47 0 45.91 0 46.34 0 46.77 0 47.21 0 47.64 0 48.07 0 48.51 0 48.94 0 49.37 0 49.8 0 50.24 0 50.67 0 51.1 0 51.54 0 51.97 0 52.4 0 52.84 0 53.27 0 53.7 0 54.14 0 54.57 0 55 0 55.43 0 55.87 0 56.3 0 56.73 0 57.17 0 57.6 0 58.03 0 58.47 0 58.9 0 59.33 0 59.77 0 60.2 0 60.63 0 61.06 0 61.5 0 61.93 0 62.36 0 62.8 0 63.23 0 63.66 0 64.1 0 64.53 0 64.96 0 65.4 0 65.83 0 66.26 0 66.69 0 67.13 0 67.56 0 67.99 0 68.43 0 68.86 0 69.29 0 69.73 0 70.16 0 70.59 0 71.03 0 71.46 0 71.89 0 72.32 0 72.76 0 73.19 0 73.62 0 74.06 0 74.49 0 74.92 0 75.36 0 75.79 0 76.22 0 76.66 0 77.09 0 77.52 0 77.95 0 78.39 0 78.82 0 79.25 0 79.69 0 80.12 0 80.55 0 80.99 0 81.42 0 81.85 0 82.29 0 82.72 0 83.15 0 83.58 0 84.02 0 84.45 0 84.88 0 85.32 0 85.75 0 86.18 0 86.62 0 87.05 0 87.48 0 87.92 0 88.35 0 88.78 0 89.22 0 89.65 0 90.08 0 90.51 0 90.95 0 91.38 0 91.81 0 92.25 0 92.68 0 93.11 0 93.55 0 93.98 0 94.41 0 94.85 0 95.28 0 95.71 0 96.14 0 96.58 0 97.01 0 97.44 0 97.88 0 98.31 0 98.74 0 99.18 0 99.61 0 100.04 0 100.48 0 100.91 0 101.34 0 101.77 0 102.21 0 102.64 0 103.07 0 103.51 0 103.94 0 104.37 0 104.81 0 105.24 0 105.67 0 106.11 0 106.54 0 106.97 0 107.4 0 107.84 0 108.27 0 108.7 0 109.14 0 109.57 0 110 0 110.44 0 110.87 0 111.3 0 111.74 0 112.17 0 112.6 0 113.03 0 113.47 0 113.9 0 114.33 0 114.77 0 115.2 0 115.63 0 116.07 0 116.5 0 116.93 0 117.37 0 117.8 0 118.23 0 118.66 0 119.1 0 119.53 0 119.96 0 120.4 0 120.83 0 121.26 0 121.7 0 122.13 0 122.56 0 123 0 123.43 0 123.86 0 124.29 0 124.73 0 125.16 0 125.59 0 126.03 0 126.46 0 126.89 0 127.33 0 127.76 0 128.19 0 128.63 0 129.06 0 129.49 0 129.92 0 130.36 0 130.79 0 131.22 0 131.66 0 132.09 0 132.52 0 132.96 0 133.39 0 133.82 0 134.26 0 134.69 0 135.12 0 135.55 0 135.99 0 136.42 0 136.85 0 137.29 0 137.72 0 138.15 0 138.59 0 139.02 0 139.45 0 139.89 0 140.32 0 140.75 0 141.18 0 141.62 0 142.05 0 142.48 0 142.92 0 143.35 0 143.78 0 144.22 0 144.65 0 145.08 0 145.52 0 145.95 0 146.38 0 146.82 0 147.25 0 147.68 0 148.11 0 148.55 0 148.98 0 149.41 0 149.85 0 150.28 0 150.71 0 151.15 0 151.58 0 152.01 0 152.45 0 152.88 0 153.31 0 153.74 0 154.18 0 154.61 0 155.04 0 155.48 0 155.91 0 156.34 0 156.78 0 157.21 0 157.64 0 158.08 0 158.51 0 158.94 0 159.37 0 159.81 0 160.24 0 160.67 0 161.11 0 161.54 0 161.97 0 162.41 0 162.84 0 163.27 0 163.71 0 164.14 0 164.57 0 165 0 165.44 0 165.87 0 166.3 0 166.74 0 167.17 0 167.6 0 168.04 0 168.47 0 168.9 0 169.34 0 169.77 0 170.2 0 170.63 0 171.07 0 171.5 0 171.93 0 172.37 0 172.8 0 172.8 51.05 172.37 50.41 171.93 50.71 171.5 51.67 171.07 52.82 170.63 53.68 170.2 53.84 169.77 53.06 169.34 51.33 168.9 48.86 168.47 46.02 168.04 43.28 167.6 41.05 167.17 39.61 166.74 39.05 166.3 39.23 165.87 39.87 165.44 40.56 165 40.96 164.57 40.8 164.14 40.05 163.71 38.85 163.27 37.53 162.84 36.53 162.41 36.25 161.97 36.99 161.54 38.85 161.11 41.68 160.67 45.13 160.24 48.72 159.81 51.93 159.37 54.33 158.94 55.66 158.51 55.89 158.08 55.22 157.64 54.02 157.21 52.7 156.78 51.68 156.34 51.21 155.91 51.33 155.48 51.91 155.04 52.63 154.61 53.09 154.18 52.95 153.74 51.98 153.31 50.14 152.88 47.62 152.45 44.78 152.01 42.06 151.58 39.9 151.15 38.61 150.71 38.29 150.28 38.82 149.85 39.88 149.41 41 148.98 41.7 148.55 41.58 148.11 40.44 147.68 38.28 147.25 35.36 146.82 32.06 146.38 28.85 145.95 26.13 145.52 24.17 145.08 23.03 144.65 22.55 144.22 22.43 143.78 22.28 143.35 21.75 142.92 20.63 142.48 18.88 142.05 16.7 141.62 14.44 141.18 12.54 140.75 11.41 140.32 11.32 139.89 12.35 139.45 14.33 139.02 16.91 138.59 19.58 138.15 21.85 137.72 23.3 137.29 23.72 136.85 23.1 136.42 21.67 135.99 19.83 135.55 18 135.12 16.58 134.69 15.81 134.26 15.71 133.82 16.12 133.39 16.72 132.96 17.12 132.52 16.98 132.09 16.09 131.66 14.46 131.22 12.29 130.79 9.96 130.36 7.93 129.92 6.62 129.49 6.31 129.06 7.1 128.63 8.82 128.19 11.13 127.76 13.55 127.33 15.61 126.89 16.93 126.46 17.32 126.03 16.82 125.59 15.7 125.16 14.36 124.73 13.25 124.29 12.77 123.86 13.16 123.43 14.43 123 16.41 122.56 18.78 122.13 21.12 121.7 23.11 121.26 24.54 120.83 25.4 120.4 25.89 119.96 26.39 119.53 27.32 119.1 29.07 118.66 31.9 118.23 35.82 117.8 40.66 117.37 46.01 116.93 51.37 116.5 56.22 116.07 60.18 115.63 63.03 115.2 64.81 114.77 65.75 114.33 66.25 113.9 66.75 113.47 67.59 113.03 69 112.6 70.98 112.17 73.32 111.74 75.69 111.3 77.69 110.87 78.98 110.44 79.39 110 78.93 109.57 77.84 109.14 76.5 108.7 75.36 108.27 74.85 107.84 75.21 107.4 76.51 106.97 78.55 106.54 80.97 106.11 83.28 105.67 85.03 105.24 85.84 104.81 85.57 104.37 84.28 103.94 82.26 103.51 79.93 103.07 77.75 102.64 76.1 102.21 75.19 101.77 75.03 101.34 75.42 100.91 76.02 100.48 76.44 100.04 76.36 99.61 75.6 99.18 74.2 98.74 72.38 98.31 70.53 97.88 69.09 97.44 68.45 97.01 68.83 96.58 70.26 96.14 72.51 95.71 75.19 95.28 77.77 94.85 79.77 94.41 80.83 93.98 80.77 93.55 79.66 93.11 77.77 92.68 75.52 92.25 73.33 91.81 71.57 91.38 70.43 90.95 69.89 90.51 69.73 90.08 69.61 89.65 69.15 89.22 68.03 88.78 66.09 88.35 63.39 87.92 60.18 87.48 56.88 87.05 53.94 86.62 51.77 86.18 50.6 85.75 50.46 85.32 51.14 84.88 52.25 84.45 53.31 84.02 53.87 83.58 53.57 83.15 52.31 82.72 50.16 82.29 47.46 81.85 44.61 81.42 42.08 80.99 40.22 80.55 39.22 80.12 39.06 79.69 39.52 79.25 40.23 78.82 40.82 78.39 40.96 77.95 40.5 77.52 39.49 77.09 38.18 76.66 36.96 76.22 36.28 75.79 36.48 75.36 37.78 74.92 40.16 74.49 43.35 74.06 46.94 73.62 50.4 73.19 53.25 72.76 55.14 72.32 55.9 71.89 55.65 71.46 54.66 71.03 53.35 70.59 52.14 70.16 51.37 69.73 51.2 69.29 51.58 68.86 52.27 68.43 52.91 67.99 53.12 67.56 52.58 67.13 51.16 66.69 48.95 66.26 46.21 65.83 43.37 65.4 40.88 64.96 39.13 64.53 38.33 64.1 38.47 63.66 39.31 63.23 40.46 62.8 41.43 62.36 41.76 61.93 41.14 61.5 39.48 61.06 36.9 60.63 33.73 60.2 30.42 59.77 27.41 59.33 25.05 58.9 23.5 58.47 22.72 58.03 22.47 57.6 22.38 57.17 22.08 56.73 21.27 56.3 19.82 55.87 17.83 55.43 15.56 55 13.42 54.57 11.86 54.14 11.22 53.7 11.7 53.27 13.24 52.84 15.57 52.4 18.26 51.97 20.8 51.54 22.7 51.1 23.64 50.67 23.53 50.24 22.46 49.8 20.78 49.37 18.89 48.94 17.22 48.51 16.11 48.07 15.68 47.64 15.87 47.21 16.42 46.77 16.97 46.34 17.13 45.91 16.63 45.47 15.36 45.04 13.42 44.61 11.11 44.17 8.88 43.74 7.16 43.31 6.33 42.88 6.57 42.44 7.86 42.01 9.93 41.58 12.36 41.14 14.66 40.71 16.38 40.28 17.24 39.84 17.17 39.41 16.31 38.98 15.03 38.54 13.75 38.11 12.91 37.68 12.85 37.25 13.69 36.81 15.35 36.38 17.57 35.95 19.98 35.51 22.18 35.08 23.9 34.65 25.03 34.21 25.67 33.78 26.12 33.35 26.78 32.91 28.07 32.48 30.34 32.05 33.73 31.62 38.15 31.18 43.3 30.75 48.72 30.32 53.89 29.88 58.33 29.45 61.75 29.02 64.04 28.58 65.36 28.15 66.03 27.72 66.48 27.28 67.11 26.85 68.22 26.42 69.93 25.98 72.13 25.55 74.53 25.12 76.76 24.69 78.44 24.25 79.3 23.82 79.26 23.39 78.44 22.95 77.17 22.52 75.87 22.09 75.01 21.65 74.91 21.22 75.75 20.79 77.45 20.35 79.74 19.92 82.17 19.49 84.25 19.06 85.57 18.62 85.84 18.19 85.03 17.76 83.33 17.32 81.1 16.89 78.8 16.46 76.84 16.02 75.55 15.59 75.03 15.16 75.18 14.72 75.72 14.29 76.28 13.86 76.48 13.43 76.07 12.99 74.97 12.56 73.32 12.13 71.43 11.69 69.73 11.26 68.65 10.83 68.51 10.39 69.43 9.96 71.31 9.53 73.83 9.09 76.52 8.66 78.87 8.23 80.44 7.8 80.94 7.36 80.33 6.93 78.79 6.5 76.66 6.06 74.39 5.63 72.38 5.2 70.92 4.76 70.09 4.33 69.78 3.9 69.69 3.46 69.45 3.03 68.69 2.6 67.16 2.17 64.82 1.73 61.82 1.3 58.51 0.87 55.34 0.43 52.74 0 51.05 0 0 0.43 0 0.87 0 1.3 0 1.73 0 2.17 0 2.6 0 3.03 0 3.46 0 3.9 0 4.33 0 4.76 0 5.2 0 5.63 0 6.06 0 6.5 0 6.93 0 7.36 0 7.8 0 8.23 0 8.66 0 9.09 0 9.53 0 9.96 0 10.39 0 10.83 0 11.26 0 11.69 0 12.13 0 12.56 0 12.99 0 13.43 0 13.86 0 14.29 0 14.72 0 15.16 0 15.59 0 16.02 0 16.46 0 16.89 0 17.32 0 17.76 0 18.19 0 18.62 0 19.06 0 19.49 0 19.92 0 20.35 0 20.79 0 21.22 0 21.65 0 22.09 0 22.52 0 22.95 0" fill="#2d99ff"/>
 <g fill="#f2bc0c" stroke="#000c17">
  <g stroke-width="3.4752">
   <path d="m457.26 530.49h-22.225q-4.8411-6.9316-7.4817-10.232-2.6406-3.4108-3.8509-4.511-1.2103-1.2103-1.4303-0.7702-0.22027 0.32991-0.22027 0.7702v14.743h-20.685v-63.154h25.306q4.511 0 8.802 1.9804 4.291 1.9804 7.3717 5.1712 3.5208 3.4108 5.2812 7.8118 1.8705 4.291 1.8705 8.802 0 4.6211-1.8705 9.1321-1.7604 4.511-5.2812 8.1418zm-27.286-39.609q0-1.9804-1.4304-3.4108-1.4303-1.4303-3.5208-1.4303h-3.1907v9.6822h3.1907q2.0905 0 3.5208-1.4303 1.4304-1.4303 1.4304-3.4108z"/>
   <path d="m364.4 466.24q7.0416 0 13.313 2.6406 6.2714 2.5306 10.892 6.9316 4.6211 4.401 7.2616 10.452 2.7506 5.9414 2.7506 12.653 0 6.8216-2.7506 12.763-2.6406 5.9414-7.2616 10.452-4.6211 4.401-10.892 6.9316-6.2715 2.5306-13.313 2.5306-7.1516 0-13.423-2.5306-6.1614-2.5306-10.782-6.9316-4.6211-4.511-7.3717-10.452-2.6406-5.9414-2.6406-12.763 0-6.7115 2.6406-12.653 2.7506-6.0514 7.3717-10.452 4.621-4.401 10.782-6.9316 6.2715-2.6406 13.423-2.6406zm13.093 32.567q0-2.5306-0.99023-4.7311-0.99022-2.3105-2.7506-3.9609-1.7604-1.6504-4.181-2.6406-2.3105-0.99023-4.9511-0.99023t-5.0612 0.99023q-2.3105 0.99023-4.0709 2.6406-1.6504 1.6504-2.7506 3.9609-0.99023 2.2005-0.99023 4.7311 0 2.5306 0.99023 4.8411 1.1002 2.2005 2.7506 3.8509 1.7604 1.6504 4.0709 2.6406 2.4205 0.99022 5.0612 0.99022t4.9511-0.99022q2.4206-0.99023 4.181-2.6406 1.7604-1.6504 2.7506-3.8509 0.99023-2.3105 0.99023-4.8411z"/>
   <path id="H" d="m327.43 467.34v63.154h-20.685v-21.785h-8.582v21.785h-20.685v-63.154h20.685v21.675h8.582v-21.675z"/>
   <path d="m274.84 516.74q-1.2103 1.6503-2.8607 3.5208-1.6504 1.7604-2.5306 2.5305-4.9511 3.9609-11.003 6.1614-5.9414 2.0905-12.213 2.0905-6.9316 0-13.753-2.7506-6.7115-2.8606-11.883-7.9218-4.401-4.621-6.7115-10.122-2.2005-5.6113-2.2005-11.443 0-6.6015 2.8606-12.763 2.8607-6.2714 8.4719-11.003 5.0612-4.0709 10.892-6.1614 5.9414-2.2005 12.103-2.2005 7.1516 0 14.083 2.9707 7.0416 2.9707 12.653 8.802l-15.624 12.983q-2.5306-2.5306-5.3912-3.7408-2.8606-1.3203-5.7213-1.3203-4.8411 0-9.0221 3.3008-2.0905 1.7604-3.1907 4.181-1.1003 2.4206-1.1003 4.9511 0 2.2005 0.77018 4.401 0.8802 2.2005 2.7506 4.0709 2.0905 2.2005 4.621 3.3008 2.6406 0.99023 5.3912 0.99023 2.4206 0 4.7311-0.7702 2.3105-0.77016 4.291-2.5306 0.55012-0.32992 1.3203-1.3203 0.88021-0.99023 1.2103-1.5404z"/>
   <path d="m208.94 467.34v63.154h-18.264l-10.782-18.924v18.924h-18.264v-63.154h18.154l9.3521 20.025v-20.025z"/>
   <path d="m133.35 450.73 24.646 79.768h-23.105l-2.5306-9.4622h-24.096l-2.4206 9.4622h-23.105l24.646-79.768zm-8.4719 47.971-4.511-18.374-4.621 18.374z"/>
  </g>
  <path d="m91.401 332.34h21.036c14.161 66.714 88.692 103.9 157.56 103.9 68.983 0 143.42-37.262 157.56-103.9h21.036c6.9426 0 10.419-8.3939 5.51-13.303l-43.528-43.528c-3.043-3.043-7.977-3.043-11.021 0l-43.528 43.528c-4.9093 4.9094-1.4326 13.303 5.51 13.303h22.823c-13.176 35.273-55.174 56.229-93.587 61.052v-123.39h33.768c4.3035 0 7.7926-3.4891 7.7926-7.7926v-25.975c0-4.3034-3.4891-7.7926-7.7926-7.7926h-33.768v-3.5521c24.21-8.5576 41.557-31.641 41.561-58.781 4e-3 -33.924-27.53-61.869-61.451-62.342-34.838-0.4864-63.231 27.609-63.231 62.334 0 27.143 17.349 50.23 41.561 58.789v3.5521h-33.768c-4.3035 0-7.7926 3.4892-7.7926 7.7926v25.975c0 4.3035 3.4891 7.7926 7.7926 7.7926h33.768v123.39c-38.272-4.8048-80.407-25.767-93.587-61.052h22.823c6.9426 0 10.419-8.3939 5.51-13.303l-43.528-43.528c-3.043-3.043-7.977-3.043-11.021 0l-43.528 43.528c-4.9087 4.9087-1.4319 13.303 5.5107 13.303zm178.6-187.02c11.458 0 20.78 9.3219 20.78 20.78 0 11.458-9.3219 20.78-20.78 20.78-11.458 0-20.78-9.3219-20.78-20.78 0-11.458 9.3219-20.78 20.78-20.78z" stroke-width="5.2228"/>
 </g>
</svg>
